<!-- Generated by IcoMoon.io -->
<svg version="1.1" xmlns="http://www.w3.org/2000/svg" width="1126" height="1024" viewBox="0 0 1126 1024">
<title></title>
<g id="icomoon-ignore">
</g>
<path fill="none" stroke="#bd3131" stroke-width="76.8" stroke-miterlimit="4" stroke-linecap="butt" stroke-linejoin="miter" d="M704 38.4h332.8c28.277 0 51.2 22.923 51.2 51.2v281.6c0 28.277-22.923 51.2-51.2 51.2h-332.8c-28.277 0-51.2-22.923-51.2-51.2v-281.6c0-28.277 22.923-51.2 51.2-51.2z"></path>
<path fill="none" stroke="#bd3131" stroke-width="76.8" stroke-miterlimit="4" stroke-linecap="butt" stroke-linejoin="miter" d="M89.6 38.4h332.8c28.277 0 51.2 22.923 51.2 51.2v281.6c0 28.277-22.923 51.2-51.2 51.2h-332.8c-28.277 0-51.2-22.923-51.2-51.2v-281.6c0-28.277 22.923-51.2 51.2-51.2z"></path>
<path fill="none" stroke="#bd3131" stroke-width="76.8" stroke-miterlimit="4" stroke-linecap="butt" stroke-linejoin="miter" d="M89.6 601.6h332.8c28.277 0 51.2 22.923 51.2 51.2v281.6c0 28.277-22.923 51.2-51.2 51.2h-332.8c-28.277 0-51.2-22.923-51.2-51.2v-281.6c0-28.277 22.923-51.2 51.2-51.2z"></path>
<path fill="none" stroke="#bd3131" stroke-width="76.8" stroke-miterlimit="4" stroke-linecap="butt" stroke-linejoin="miter" d="M704 601.6h332.8c28.277 0 51.2 22.923 51.2 51.2v281.6c0 28.277-22.923 51.2-51.2 51.2h-332.8c-28.277 0-51.2-22.923-51.2-51.2v-281.6c0-28.277 22.923-51.2 51.2-51.2z"></path>
</svg>
