<!-- Generated by IcoMoon.io -->
<svg version="1.1" xmlns="http://www.w3.org/2000/svg" width="819" height="1024" viewBox="0 0 819 1024">
<title></title>
<g id="icomoon-ignore">
</g>
<path fill="#bd3131" d="M648.806 168.755c-2.458-3.277-6.554-4.915-10.65-4.915h-457.114c-4.096 0-8.192 1.638-10.65 4.915s-4.096 6.554-4.096 10.65l38.502 432.538c2.458 24.576 22.118 43.418 47.514 43.418h315.392c24.576 0 45.056-18.842 47.514-43.418l38.502-432.538c-0.819-4.096-2.458-8.192-4.915-10.65zM213.811 391.578h23.757v54.067c0 27.034 22.118 49.152 49.152 49.152h90.931c22.938 0 42.598-15.565 47.514-36.864l17.203 6.554c5.734 1.638 11.469 3.277 16.384 3.277 7.373 0 14.746-1.638 21.299-4.915 12.288-5.734 21.299-15.565 25.395-27.853l15.565-42.598h25.395l-5.734 72.909c-0.819 8.192 4.915 14.746 13.107 15.565h0.819c7.373 0 13.926-5.734 13.926-13.107l6.554-77.005h29.491l-10.65 123.699h-368.64l-11.469-122.88zM510.362 338.33l-9.011 24.576h-73.728v-9.011c0-26.214-20.48-47.514-46.694-49.152l4.096-11.469c1.638-4.915 5.734-9.83 10.65-11.469 4.915-2.458 10.65-2.458 15.565-0.819l86.016 30.31c4.915 1.638 9.83 5.734 11.469 10.65 3.277 5.734 3.277 10.65 1.638 16.384zM427.622 391.578h63.898l-11.469 32.768c-1.638 4.915-5.734 9.83-10.65 11.469-4.915 2.458-10.65 2.458-15.565 0.819l-25.395-9.011-0.819-36.045zM377.651 333.414c11.469 0 20.48 9.011 20.48 20.48v9.011h-132.71v-9.011c0-11.469 9.011-20.48 20.48-20.48h91.75zM398.95 391.578v54.067c0 11.469-9.011 20.48-20.48 20.48h-91.75c-11.469 0-20.48-9.011-20.48-20.48v-54.067h132.71zM622.592 192.512l-14.746 170.394h-30.31l9.011-107.315c0.819-8.192-4.915-14.746-13.107-15.565s-14.746 4.915-15.565 13.107l-9.011 109.773h-17.203l4.915-14.746c4.096-12.288 4.096-26.214-1.638-37.683-5.734-12.288-15.565-21.299-27.853-25.395l-86.016-31.13c-12.288-4.096-26.214-4.096-37.683 1.638-12.288 5.734-21.299 15.565-25.395 27.853l-7.373 20.48h-63.898c-27.034 0-49.152 22.118-49.152 49.152v9.011h-25.395l-15.565-169.574h425.984zM566.886 626.688h-314.573c-9.83 0-18.022-7.373-18.842-17.203l-5.734-65.536h364.544l-5.734 65.536c-1.638 9.83-9.83 17.203-19.661 17.203z"></path>
</svg>
