<!-- Generated by IcoMoon.io -->
<svg version="1.1" xmlns="http://www.w3.org/2000/svg" width="1277" height="1024" viewBox="0 0 1277 1024">
<title></title>
<g id="icomoon-ignore">
</g>
<path fill="#bd3131" d="M669.047 843.176h148.11c20.429 0 38.304-17.875 38.304-38.304v-42.135l182.584 40.858c21.706 5.107 45.965-14.045 47.242-37.027v-306.434c-2.554-30.643-26.813-42.135-47.242-37.027l-182.584 39.581v-40.858c0-20.429-17.875-38.304-38.304-38.304h-22.983c38.304-34.474 61.287-85.546 61.287-140.449 0-105.975-86.823-191.521-191.521-191.521-77.885 0-145.556 48.519-176.2 116.19-30.643-39.581-77.885-65.117-130.234-65.117-90.653 0-165.985 75.332-165.985 165.985 0 44.688 17.875 85.546 47.242 114.913h-8.938c-21.706 0-38.304 21.706-38.304 38.304v383.042c0 20.429 17.875 38.304 38.304 38.304h150.663zM663.94 128.164c63.84 0 114.913 51.072 114.913 114.913s-51.072 114.913-114.913 114.913-114.913-51.072-114.913-114.913 51.072-114.913 114.913-114.913zM357.506 179.236c49.796 0 89.377 39.581 89.377 89.377s-39.581 89.377-89.377 89.377-89.377-39.581-89.377-89.377 39.581-89.377 89.377-89.377zM503.062 347.775c8.938 12.768 19.152 25.536 30.643 35.751h-57.456c11.491-11.491 20.429-22.983 26.813-35.751zM268.13 460.134h510.723v306.434h-510.723v-306.434zM1008.678 507.376v210.673l-153.217-34.474v-143.002l153.217-33.197zM474.973 843.176v0z"></path>
</svg>
